# xmcd
#
# Track frame offsets: 
#        150
#        22370
#        41415
#        62205
#        77897
#        97115
#        120252
#        134930
#        153732
#        170067
#        180837
#        196062
#        212710
#        233277
#        253410
#        275662
#        294857
#
# Disc length: 4191 seconds
#
# Revision: 4
# Processed by: cddbd v1.5.1PL0 Copyright (c) Steve Scherf et al.
# Submitted via: ExactAudioCopy v0.95a5
#
DISCID=fb105d11
DTITLE=Mystikal - Unpredictable
DYEAR=1997
DGENRE=Rap
TTITLE0=Born 2 Be A Soldier (feat. Master P and Silkk The Shocker)
TTITLE1=Murder 2
TTITLE2=13 Years
TTITLE3=Unpredictable
TTITLE4=Ain't No Limit (feat. Silkk The Shocker)
TTITLE5=Ghetto Child (feat. Master P and Silkk The Shocker)
TTITLE6=Did I Do It
TTITLE7=Here We Go (feat. B-Legit, E-40 and Master P)
TTITLE8=We Got The Clout (feat. Mia X)
TTITLE9=Still Smokin'
TTITLE10=U Can't Handle This
TTITLE11=The Man Right Chea
TTITLE12=Dick On The Track
TTITLE13=Sleepin' With Me (feat. O'Dell)
TTITLE14=It Yearns
TTITLE15=Gangstas (feat. Snoop Doggy Dogg and Master P)
TTITLE16=Shine
EXTD=YEAR: 1997 ID3G: 15
EXTT0=featuring Master P and Silkk the Shocker\n
EXTT1=
EXTT2=
EXTT3=
EXTT4=featuring Silkk the Shocker\n
EXTT5=featuring Master P and Silkk the Shocker\n
EXTT6=
EXTT7=Featuring B-Legit, E-40 and Master P\n
EXTT8=Featuring Mia X\n
EXTT9=
EXTT10=
EXTT11=
EXTT12=
EXTT13=Featuring O'Dell\n
EXTT14=
EXTT15=Featuring Snoop Doggy Dogg and Master P\n
EXTT16=
PLAYORDER=
